<svg id="Camada_1" data-name="Camada 1" xmlns="http://www.w3.org/2000/svg" viewBox="0 0 58.82 14.04"><path d="M4.83,12.66a.66.66,0,0,1-.35-.11.57.57,0,0,1-.22-.29L2.48,6.93a.93.93,0,0,1,0-.6.44.44,0,0,1,.45-.24.6.6,0,0,1,.38.13.87.87,0,0,1,.24.43l1.51,4.72H4.65L6.08,6.55a.63.63,0,0,1,.21-.33.57.57,0,0,1,.39-.13.61.61,0,0,1,.39.13.56.56,0,0,1,.2.33l1.16,4.54H8.25L9.67,6.65c.11-.37.32-.56.62-.56a.46.46,0,0,1,.46.24.74.74,0,0,1,0,.6L9,12.26a.53.53,0,0,1-.2.29.64.64,0,0,1-.72,0,.52.52,0,0,1-.22-.29L6.59,7.69h.12l-1.3,4.57a.5.5,0,0,1-.21.29A.67.67,0,0,1,4.83,12.66Z" style="fill:#fff"/><path d="M12.67,10.27a.58.58,0,0,1-.61-.61V3.9a.64.64,0,0,1,.17-.45.61.61,0,0,1,.44-.16.57.57,0,0,1,.61.61V9.66a.58.58,0,0,1-.17.44A.6.6,0,0,1,12.67,10.27Zm0,2.4a.58.58,0,0,1-.61-.61V6.71a.63.63,0,0,1,.17-.45.62.62,0,0,1,.44-.17.6.6,0,0,1,.44.17.59.59,0,0,1,.17.45v5.35a.58.58,0,0,1-.17.44A.6.6,0,0,1,12.67,12.67Zm4.93,0a.64.64,0,0,1-.44-.17.62.62,0,0,1-.17-.44v-3A2.19,2.19,0,0,0,16.74,8a1.61,1.61,0,0,0-.68-.64,2.17,2.17,0,0,0-1-.21,2.09,2.09,0,0,0-.91.2,1.75,1.75,0,0,0-.65.55,1.34,1.34,0,0,0-.24.79h-.75a2.58,2.58,0,0,1,.36-1.36,2.74,2.74,0,0,1,1-.94A3,3,0,0,1,15.32,6a3,3,0,0,1,1.48.36,2.54,2.54,0,0,1,1,1,3.42,3.42,0,0,1,.37,1.68v3a.58.58,0,0,1-.17.44A.62.62,0,0,1,17.6,12.67Z" style="fill:#fff"/><path d="M23,12.71a2.9,2.9,0,0,1-1.57-.44,3.08,3.08,0,0,1-1.1-1.19,3.53,3.53,0,0,1-.4-1.7,3.24,3.24,0,0,1,.44-1.7,3.31,3.31,0,0,1,5.73,0,3.34,3.34,0,0,1,.44,1.7h-.47a3.53,3.53,0,0,1-.4,1.7,3.08,3.08,0,0,1-1.1,1.19A2.9,2.9,0,0,1,23,12.71Zm.24-1.08a2,2,0,0,0,1.09-.3,2.09,2.09,0,0,0,.76-.8,2.41,2.41,0,0,0,.27-1.15,2.48,2.48,0,0,0-.27-1.16,2.16,2.16,0,0,0-.76-.8,2,2,0,0,0-1.09-.29,2,2,0,0,0-1.09.29,2.09,2.09,0,0,0-.76.8,2.38,2.38,0,0,0-.29,1.16,2.31,2.31,0,0,0,.29,1.15,2,2,0,0,0,.76.8A2.05,2.05,0,0,0,23.23,11.63Zm2.69,1a.62.62,0,0,1-.44-.17.58.58,0,0,1-.17-.44V10.22L25.53,9l1,.43v2.68a.62.62,0,0,1-.17.44A.64.64,0,0,1,25.92,12.67Z" style="fill:#fff"/><path d="M28.08,7.37a.56.56,0,0,1-.41-.15.47.47,0,0,1-.16-.36.5.5,0,0,1,.16-.38.56.56,0,0,1,.41-.15h2.77a.58.58,0,0,1,.41.15.49.49,0,0,1,.15.38.46.46,0,0,1-.15.36.58.58,0,0,1-.41.15Zm2.66,5.29a1.92,1.92,0,0,1-1.08-.31,2.08,2.08,0,0,1-.75-.83,2.46,2.46,0,0,1-.28-1.19V4.61a.58.58,0,0,1,.17-.43.63.63,0,0,1,.86,0,.58.58,0,0,1,.17.43v5.72a1.24,1.24,0,0,0,.26.8.82.82,0,0,0,.65.33h.41a.46.46,0,0,1,.37.17.61.61,0,0,1,.15.43.54.54,0,0,1-.2.43.77.77,0,0,1-.51.17Z" style="fill:#fff"/><path d="M35.55,12.71A4.58,4.58,0,0,1,34,12.45a2.94,2.94,0,0,1-1.11-.65.53.53,0,0,1-.15-.44A.61.61,0,0,1,33,11a.66.66,0,0,1,.48-.16.65.65,0,0,1,.4.21,1.92,1.92,0,0,0,.65.43,2.53,2.53,0,0,0,1,.2,2.06,2.06,0,0,0,1.06-.23.72.72,0,0,0,.38-.59.74.74,0,0,0-.35-.62,3.11,3.11,0,0,0-1.29-.43A3.77,3.77,0,0,1,33.56,9a1.56,1.56,0,0,1-.19-2.19,2.37,2.37,0,0,1,.92-.6,3.91,3.91,0,0,1,2.58.06,2.48,2.48,0,0,1,1,.69A.57.57,0,0,1,38,7.4a.46.46,0,0,1-.2.35.56.56,0,0,1-.46.08.86.86,0,0,1-.44-.21,1.79,1.79,0,0,0-.65-.4,2.76,2.76,0,0,0-.8-.11,2,2,0,0,0-.9.19.55.55,0,0,0-.36.52.64.64,0,0,0,.11.39,1,1,0,0,0,.45.32,6,6,0,0,0,1,.27,5.25,5.25,0,0,1,1.43.45,2.11,2.11,0,0,1,.75.64,1.61,1.61,0,0,1,.22.85,1.75,1.75,0,0,1-.29,1,2,2,0,0,1-.86.7A3.35,3.35,0,0,1,35.55,12.71Z" style="fill:#fff"/><path d="M44,12.78a4.52,4.52,0,0,1-3.29-1.39,4.69,4.69,0,0,1-1-1.53,5.25,5.25,0,0,1,0-3.77,4.92,4.92,0,0,1,1-1.53,4.73,4.73,0,0,1,1.47-1A4.42,4.42,0,0,1,44,3.17a4.67,4.67,0,0,1,1.59.24,4.48,4.48,0,0,1,1.34.79,1.06,1.06,0,0,1,.15.15.33.33,0,0,1,.07.16.9.9,0,0,1,0,.18.49.49,0,0,1-.16.38.54.54,0,0,1-.4.17.64.64,0,0,1-.44-.15,3.29,3.29,0,0,0-.91-.59,3.63,3.63,0,0,0-2.59.08,3.76,3.76,0,0,0-1.1.79,3.76,3.76,0,0,0-1,2.6,4,4,0,0,0,.26,1.43,3.82,3.82,0,0,0,.74,1.17,3.43,3.43,0,0,0,1.1.79,3.3,3.3,0,0,0,2.49.07,5,5,0,0,0,1.05-.58.62.62,0,0,1,.43-.14.53.53,0,0,1,.35.17.54.54,0,0,1,.14.41.67.67,0,0,1,0,.24.69.69,0,0,1-.15.21,4.31,4.31,0,0,1-1.38.78A4.73,4.73,0,0,1,44,12.78Zm3.13-1.49-1.2-.24V8.9H44.28a.68.68,0,0,1-.45-.15.53.53,0,0,1,0-.8.68.68,0,0,1,.45-.15h2.24A.63.63,0,0,1,47,8a.64.64,0,0,1,.16.45Z" style="fill:#fff"/><path d="M51.5,12.71a3.29,3.29,0,0,1-1.71-.43,3,3,0,0,1-1.17-1.18,3.33,3.33,0,0,1-.43-1.72,3.39,3.39,0,0,1,.43-1.73,3.08,3.08,0,0,1,1.17-1.18,3.39,3.39,0,0,1,1.71-.42,3.44,3.44,0,0,1,1.71.42,3.23,3.23,0,0,1,1.17,1.18,3.49,3.49,0,0,1,.42,1.73,3.42,3.42,0,0,1-.42,1.72,3,3,0,0,1-1.16,1.18A3.35,3.35,0,0,1,51.5,12.71Zm0-1.08a2.14,2.14,0,0,0,1.11-.29,2,2,0,0,0,.75-.79,2.46,2.46,0,0,0,.27-1.17,2.46,2.46,0,0,0-.27-1.17,2.06,2.06,0,0,0-.75-.8,2.32,2.32,0,0,0-2.21,0,2.16,2.16,0,0,0-.76.8,2.46,2.46,0,0,0-.27,1.17,2.46,2.46,0,0,0,.27,1.17,2.07,2.07,0,0,0,1.86,1.08Z" style="fill:#fff"/><circle cx="56.56" cy="12.07" r="0.71" style="fill:#da0476"/></svg>